<svg height="16" viewBox="0 0 16 16" width="16" xmlns="http://www.w3.org/2000/svg"><path d="m9 2c-1.5691507.0018019-2.8718218 1.2125198-2.9882812 2.7773438-.5510315-.499525-1.2679713-.7765561-2.0117188-.7773438-1.6568542 0-3 1.3431458-3 3 .0017817 1.2698042.8028155 2.4009516 2 2.8242188v2.1757812c0 .554.44599 1 1 1h6c.55401 0 1-.446 1-1v-1l3 2v-6l-3 2v-1.7695312c.634848-.567823.998409-1.3787336 1-2.2304688 0-1.6568542-1.343146-3-3-3zm.025391.5078125c.643822.00596 1.278638.2504879 1.736328.7207031 1.077777 1.0015138.8582 2.8475722-.22464 3.7695613-.04274 1.3778478.0066 1.9559261-.03708 2.9355169 1.000568-.6658138 2.00003-1.3332883 3-2v4.1328122l-1.972655-1.316406-1.027344-.629433c.05475 2.147174.166824 2.075561-.298828 2.334511-1.5453932.10625-1.8575143.06869-4.6718751.044922-1.069037.002102-1.6957161.06232-1.9453125-.224609-.0805512-.901113-.1123054-1.462432-.09375-2.7636722-1.1577629-.3815514-2.1457099-1.4898092-1.953125-2.765625.0890745-1.7271702 2.2362934-2.8171702 3.6972656-1.90625.418526.1497863 1.2214954 1.2607602 1.2089844.3300781.069825-1.1556029.766315-2.2986589 1.9414062-2.5878907.2105669-.0512243.4260177-.076204.6406254-.0742187z" fill="#8da5f3"/></svg>